<svg width="16" height="20" viewBox="0 0 16 20" fill="none" xmlns="http://www.w3.org/2000/svg">
<path d="M7.99935 15.3334C6.51046 15.3334 5.24935 14.8167 4.21602 13.7834C3.18268 12.75 2.66602 11.4889 2.66602 10C2.66602 8.51115 3.18268 7.25004 4.21602 6.21671C5.24935 5.18337 6.51046 4.66671 7.99935 4.66671C8.76602 4.66671 9.49935 4.82504 10.1993 5.14171C10.8993 5.45837 11.4993 5.91115 11.9993 6.50004V4.66671H13.3327V9.33337H8.66602V8.00004H11.466C11.1105 7.37782 10.6243 6.88893 10.0077 6.53337C9.39102 6.17782 8.72157 6.00004 7.99935 6.00004C6.88824 6.00004 5.94379 6.38893 5.16602 7.16671C4.38824 7.94448 3.99935 8.88893 3.99935 10C3.99935 11.1112 4.38824 12.0556 5.16602 12.8334C5.94379 13.6112 6.88824 14 7.99935 14C8.8549 14 9.62713 13.7556 10.316 13.2667C11.0049 12.7778 11.4882 12.1334 11.766 11.3334H13.166C12.8549 12.5112 12.2216 13.4723 11.266 14.2167C10.3105 14.9612 9.22157 15.3334 7.99935 15.3334Z" fill="#94A3B8"/>
</svg>
