<svg width="14" height="14" viewBox="0 0 14 14" fill="none" xmlns="http://www.w3.org/2000/svg">
<path d="M6.75 6.75C7.375 6.75 7.90625 6.53125 8.34375 6.09375C8.78125 5.65625 9 5.125 9 4.5C9 3.875 8.78125 3.34375 8.34375 2.90625C7.90625 2.46875 7.375 2.25 6.75 2.25C6.125 2.25 5.59375 2.46875 5.15625 2.90625C4.71875 3.34375 4.5 3.875 4.5 4.5C4.5 5.125 4.71875 5.65625 5.15625 6.09375C5.59375 6.53125 6.125 6.75 6.75 6.75ZM5.625 4.875C5.525 4.875 5.4375 4.8375 5.3625 4.7625C5.2875 4.6875 5.25 4.6 5.25 4.5C5.25 4.4 5.2875 4.3125 5.3625 4.2375C5.4375 4.1625 5.525 4.125 5.625 4.125C5.725 4.125 5.8125 4.1625 5.8875 4.2375C5.9625 4.3125 6 4.4 6 4.5C6 4.6 5.9625 4.6875 5.8875 4.7625C5.8125 4.8375 5.725 4.875 5.625 4.875ZM6.75 4.875C6.65 4.875 6.5625 4.8375 6.4875 4.7625C6.4125 4.6875 6.375 4.6 6.375 4.5C6.375 4.4 6.4125 4.3125 6.4875 4.2375C6.5625 4.1625 6.65 4.125 6.75 4.125C6.85 4.125 6.9375 4.1625 7.0125 4.2375C7.0875 4.3125 7.125 4.4 7.125 4.5C7.125 4.6 7.0875 4.6875 7.0125 4.7625C6.9375 4.8375 6.85 4.875 6.75 4.875ZM7.875 4.875C7.775 4.875 7.6875 4.8375 7.6125 4.7625C7.5375 4.6875 7.5 4.6 7.5 4.5C7.5 4.4 7.5375 4.3125 7.6125 4.2375C7.6875 4.1625 7.775 4.125 7.875 4.125C7.975 4.125 8.0625 4.1625 8.1375 4.2375C8.2125 4.3125 8.25 4.4 8.25 4.5C8.25 4.6 8.2125 4.6875 8.1375 4.7625C8.0625 4.8375 7.975 4.875 7.875 4.875ZM1.5 13.5C1.0875 13.5 0.734375 13.3531 0.440625 13.0594C0.146875 12.7656 0 12.4125 0 12V1.5C0 1.0875 0.146875 0.734374 0.440625 0.440624C0.734375 0.146874 1.0875 -9.53674e-07 1.5 -9.53674e-07H12C12.4125 -9.53674e-07 12.7656 0.146874 13.0594 0.440624C13.3531 0.734374 13.5 1.0875 13.5 1.5V12C13.5 12.4125 13.3531 12.7656 13.0594 13.0594C12.7656 13.3531 12.4125 13.5 12 13.5H1.5ZM1.5 12H12V1.5H1.5V12Z" fill="#2B6CEE"/>
</svg>
