<svg width="60" height="60" viewBox="0 0 60 60" fill="none" xmlns="http://www.w3.org/2000/svg">
<path d="M26.25 32.4609H23.7891C21.6797 32.4609 20.0391 30.8203 20.0391 28.7109C20.0391 26.7188 21.6797 24.9609 23.7891 24.9609H26.25V22.5C26.25 20.3906 27.8906 18.75 30 18.75C32.1094 18.75 33.75 20.3906 33.75 22.5V24.9609H36.2109C38.3203 24.9609 39.9609 26.7188 39.9609 28.7109C39.9609 30.8203 38.3203 32.4609 36.2109 32.4609H33.75V35.0391C33.75 37.0312 32.1094 38.7891 30 38.7891C27.8906 38.7891 26.25 37.0312 26.25 35.0391V32.4609ZM28.2422 5.625L13.2422 11.25C11.25 12.0703 9.96094 13.8281 9.96094 15.9375V27.7734C9.96094 40.3125 18.5156 52.1484 30 54.9609C41.4844 52.1484 50.0391 40.3125 50.0391 27.7734V15.9375C50.0391 13.9453 48.75 12.0703 46.7578 11.25L31.7578 5.625C30.5859 5.27344 29.4141 5.27344 28.2422 5.625Z" fill="#2563EB"/>
</svg>
