<svg width="16" height="24" viewBox="0 0 16 24" fill="none" xmlns="http://www.w3.org/2000/svg">
<path d="M8 5.34375C4.3125 5.34375 1.34375 8.3125 1.34375 12C1.34375 15.6875 4.3125 18.6562 8 18.6562C11.6875 18.6562 14.6562 15.6875 14.6562 12C14.6562 8.3125 11.6875 5.34375 8 5.34375ZM6.1875 14.875L3.8125 12.4688C3.53125 12.2188 3.53125 11.7812 3.8125 11.5312C4.0625 11.2812 4.46875 11.2812 4.75 11.5312L6.65625 13.4375L11.25 8.875C11.5 8.59375 11.9375 8.59375 12.1875 8.875C12.4688 9.125 12.4688 9.53125 12.1875 9.8125L7.125 14.875C6.875 15.125 6.46875 15.125 6.1875 14.875Z" fill="#2563EB"/>
</svg>
