<svg width="25" height="28" viewBox="0 0 25 28" fill="none" xmlns="http://www.w3.org/2000/svg">
<path d="M8.12088 19.8333H9.57921V17.8889H11.5237V16.4306H9.57921V14.4861H8.12088V16.4306H6.17643V17.8889H8.12088V19.8333ZM12.982 19.1042H17.8431V17.6458H12.982V19.1042ZM12.982 16.6736H17.8431V15.2153H12.982V16.6736ZM14.0514 12.9792L15.4125 11.6181L16.7737 12.9792L17.7945 11.9583L16.4334 10.5486L17.7945 9.1875L16.7737 8.16667L15.4125 9.52778L14.0514 8.16667L13.0306 9.1875L14.3917 10.5486L13.0306 11.9583L14.0514 12.9792ZM6.41949 11.2778H11.2806V9.81944H6.41949V11.2778ZM5.20421 22.75C4.66949 22.75 4.21173 22.5596 3.83095 22.1788C3.45016 21.798 3.25977 21.3403 3.25977 20.8056V7.19444C3.25977 6.65972 3.45016 6.20197 3.83095 5.82118C4.21173 5.44039 4.66949 5.25 5.20421 5.25H18.8153C19.35 5.25 19.8078 5.44039 20.1886 5.82118C20.5694 6.20197 20.7598 6.65972 20.7598 7.19444V20.8056C20.7598 21.3403 20.5694 21.798 20.1886 22.1788C19.8078 22.5596 19.35 22.75 18.8153 22.75H5.20421ZM5.20421 20.8056H18.8153V7.19444H5.20421V20.8056Z" fill="white"/>
</svg>
